<svg width="32" height="32" viewBox="0 0 32 32" fill="none" xmlns="http://www.w3.org/2000/svg">
<path fill-rule="evenodd" clip-rule="evenodd" d="M16 0C7.16344 0 0 7.16344 0 16C0 24.8366 7.16344 32 16 32C24.8366 32 32 24.8366 32 16C32 7.16344 24.8366 0 16 0ZM7.68066 13.2516H11.3066V24.146H7.68066V13.2516ZM11.5455 9.8818C11.5219 8.8136 10.7581 8 9.51766 8C8.27725 8 7.46631 8.8136 7.46631 9.8818C7.46631 10.9279 8.25328 11.7649 9.4706 11.7649H9.49377C10.7581 11.7649 11.5455 10.9279 11.5455 9.8818ZM20.2091 12.9958C22.5952 12.9958 24.384 14.5533 24.384 17.8996L24.3838 24.1461H20.758V18.3176C20.758 16.8536 20.2333 15.8546 18.9207 15.8546C17.919 15.8546 17.3223 16.528 17.0602 17.1785C16.9644 17.4116 16.9408 17.7364 16.9408 18.062V24.1464H13.3145C13.3145 24.1464 13.3622 14.2742 13.3145 13.2519H16.9408V14.7951C17.4221 14.0533 18.284 12.9958 20.2091 12.9958Z" fill="white"/>
</svg>
