<svg width="16" height="16" viewBox="0 0 16 16" fill="none" xmlns="http://www.w3.org/2000/svg">
<path d="M7.875 0C3.52617 0 0 3.52617 0 7.875C0 12.2238 3.52617 15.75 7.875 15.75C12.2238 15.75 15.75 12.2238 15.75 7.875C15.75 3.52617 12.2238 0 7.875 0ZM11.2764 5.30332L7.57441 10.4361C7.52267 10.5084 7.45446 10.5672 7.37544 10.6078C7.29642 10.6484 7.20886 10.6696 7.12002 10.6696C7.03118 10.6696 6.94362 10.6484 6.8646 10.6078C6.78557 10.5672 6.71737 10.5084 6.66563 10.4361L4.47363 7.39863C4.40684 7.30547 4.47363 7.17539 4.58789 7.17539H5.4123C5.5916 7.17539 5.76211 7.26152 5.86758 7.40918L7.11914 9.1459L9.88242 5.31387C9.98789 5.16797 10.1566 5.08008 10.3377 5.08008H11.1621C11.2764 5.08008 11.3432 5.21016 11.2764 5.30332Z" fill="#06C847"/>
</svg>
